<?xml version="1.0" encoding="UTF-8"?>
<svg width="24px" height="24px" viewBox="0 0 24 24" version="1.1" xmlns="http://www.w3.org/2000/svg" xmlns:xlink="http://www.w3.org/1999/xlink">
    <title>tab/btn/home_on</title>
    <g id="tab/btn/home_on" stroke="none" stroke-width="1" fill="none" fill-rule="evenodd">
        <rect id="Rectangle" x="0" y="0" width="24" height="24"></rect>
        <path d="M23,24 L14.985,24 C14.713,24 14.453,23.8896667 14.265,23.6938498 C14.076,23.500021 13.976,23.2366126 13.986,22.9662462 C13.987,22.9324504 13.998,22.833051 14.003,22.7992552 L14,15.0232398 C14,13.9268644 13.103,13.0352518 12,13.0352518 C10.897,13.0352518 10,13.9268644 10,15.0232398 L10,22.8608828 C10.001,22.8598888 10.01,22.9026306 10.013,22.9563063 C10.027,23.2286606 9.928,23.494057 9.739,23.6908679 C9.55,23.8886727 9.289,24 9.015,24 L1,24 C0.448,24 0,23.5556847 0,23.006006 L0,8.06528156 C0,7.72931158 0.17,7.41620346 0.453,7.23330855 L11.338,0.162034962 C11.668,-0.0516737559 12.093,-0.054655738 12.424,0.157064992 L23.539,7.22833858 C23.826,7.41123349 24,7.7263296 24,8.06528156 L24,23.006006 C24,23.5556847 23.553,24 23,24 L23,24 Z" id="Fill-1" fill="#333333"></path>
    </g>
</svg>